<svg viewBox="0 0 1000 1000" xmlns="http://www.w3.org/2000/svg" overflow="visible" height="100%"><defs><clipPath id="c5d269a4-c827-42f9-aa96-14292e6d1f28"><path fill="black" d="M-28343.38718842706,1020 v -395 c 6000,0 6000,-625 12000,-625 c 6000,0 6000, 625 12000, 625 c 6000,0 6000,-625 12000,-625 c 6000,0 6000, 625 12000, 625 c 6000,0 6000,-625 12000,-625 c 6000,0 6000, 625 12000, 625 v 395 L 48000,1020 L 0,1020 z" clip-path="url(#)"><animate attributeName="d" values="M-28343.38718842706,1020 v -395 c 6000,0 6000,-625 12000,-625 c 6000,0 6000, 625 12000, 625 c 6000,0 6000,-625 12000,-625 c 6000,0 6000, 625 12000, 625 c 6000,0 6000,-625 12000,-625 c 6000,0 6000, 625 12000, 625 v 395 L 48000,1020 L 0,1020 z;M-4343.387188427058,1020 v -395 c 6000,0 6000,-625 12000,-625 c 6000,0 6000, 625 12000, 625 c 6000,0 6000,-625 12000,-625 c 6000,0 6000, 625 12000, 625 c 6000,0 6000,-625 12000,-625 c 6000,0 6000, 625 12000, 625 v 395 L 48000,1020 L 0,1020 z" dur="26.378874268331437s" keyTimes="0;1" repeatCount="indefinite"></animate></path></clipPath><clipPath id="1d30837c-6f56-49de-a08c-ae8003c010e6"><path fill="black" d="M-10648.070829585471,1020 v -270 c 6000,0 6000,-625 12000,-625 c 6000,0 6000, 625 12000, 625 c 6000,0 6000,-625 12000,-625 c 6000,0 6000, 625 12000, 625 c 6000,0 6000,-625 12000,-625 c 6000,0 6000, 625 12000, 625 v 270 L 48000,1020 L 0,1020 z" clip-path="url(#c5d269a4-c827-42f9-aa96-14292e6d1f28)"><animate attributeName="d" values="M-10648.070829585471,1020 v -270 c 6000,0 6000,-625 12000,-625 c 6000,0 6000, 625 12000, 625 c 6000,0 6000,-625 12000,-625 c 6000,0 6000, 625 12000, 625 c 6000,0 6000,-625 12000,-625 c 6000,0 6000, 625 12000, 625 v 270 L 48000,1020 L 0,1020 z;M-34648.07082958547,1020 v -270 c 6000,0 6000,-625 12000,-625 c 6000,0 6000, 625 12000, 625 c 6000,0 6000,-625 12000,-625 c 6000,0 6000, 625 12000, 625 c 6000,0 6000,-625 12000,-625 c 6000,0 6000, 625 12000, 625 v 270 L 48000,1020 L 0,1020 z" dur="47.32657230715395s" keyTimes="0;1" repeatCount="indefinite"></animate></path></clipPath><clipPath id="73c14f71-1a2f-4cb4-8a46-1b7ba56b5f80"><path fill="black" d="M-21880.57126506456,1020 v -145 c 6000,0 6000,-625 12000,-625 c 6000,0 6000, 625 12000, 625 c 6000,0 6000,-625 12000,-625 c 6000,0 6000, 625 12000, 625 c 6000,0 6000,-625 12000,-625 c 6000,0 6000, 625 12000, 625 v 145 L 48000,1020 L 0,1020 z" clip-path="url(#1d30837c-6f56-49de-a08c-ae8003c010e6)"><animate attributeName="d" values="M-21880.57126506456,1020 v -145 c 6000,0 6000,-625 12000,-625 c 6000,0 6000, 625 12000, 625 c 6000,0 6000,-625 12000,-625 c 6000,0 6000, 625 12000, 625 c 6000,0 6000,-625 12000,-625 c 6000,0 6000, 625 12000, 625 v 145 L 48000,1020 L 0,1020 z;M-45880.57126506456,1020 v -145 c 6000,0 6000,-625 12000,-625 c 6000,0 6000, 625 12000, 625 c 6000,0 6000,-625 12000,-625 c 6000,0 6000, 625 12000, 625 c 6000,0 6000,-625 12000,-625 c 6000,0 6000, 625 12000, 625 v 145 L 48000,1020 L 0,1020 z" dur="29.58205840393608s" keyTimes="0;1" repeatCount="indefinite"></animate></path></clipPath><clipPath id="ce71f05d-6373-4a65-9c4f-166c27d03134"><path fill="black" d="M-38706.1463254809,1020 v -20 c 3000,0 3000,-625 6000,-625 c 3000,0 3000, 625 6000, 625 c 3000,0 3000,-625 6000,-625 c 3000,0 3000, 625 6000, 625 c 3000,0 3000,-625 6000,-625 c 3000,0 3000, 625 6000, 625 c 3000,0 3000,-625 6000,-625 c 3000,0 3000, 625 6000, 625 c 3000,0 3000,-625 6000,-625 c 3000,0 3000, 625 6000, 625 c 3000,0 3000,-625 6000,-625 c 3000,0 3000, 625 6000, 625 c 3000,0 3000,-625 6000,-625 c 3000,0 3000, 625 6000, 625 v 20 L 48000,1020 L 0,1020 z" clip-path="url(#73c14f71-1a2f-4cb4-8a46-1b7ba56b5f80)"><animate attributeName="d" values="M-38706.1463254809,1020 v -20 c 3000,0 3000,-625 6000,-625 c 3000,0 3000, 625 6000, 625 c 3000,0 3000,-625 6000,-625 c 3000,0 3000, 625 6000, 625 c 3000,0 3000,-625 6000,-625 c 3000,0 3000, 625 6000, 625 c 3000,0 3000,-625 6000,-625 c 3000,0 3000, 625 6000, 625 c 3000,0 3000,-625 6000,-625 c 3000,0 3000, 625 6000, 625 c 3000,0 3000,-625 6000,-625 c 3000,0 3000, 625 6000, 625 c 3000,0 3000,-625 6000,-625 c 3000,0 3000, 625 6000, 625 v 20 L 48000,1020 L 0,1020 z;M-14706.146325480897,1020 v -20 c 3000,0 3000,-625 6000,-625 c 3000,0 3000, 625 6000, 625 c 3000,0 3000,-625 6000,-625 c 3000,0 3000, 625 6000, 625 c 3000,0 3000,-625 6000,-625 c 3000,0 3000, 625 6000, 625 c 3000,0 3000,-625 6000,-625 c 3000,0 3000, 625 6000, 625 c 3000,0 3000,-625 6000,-625 c 3000,0 3000, 625 6000, 625 c 3000,0 3000,-625 6000,-625 c 3000,0 3000, 625 6000, 625 c 3000,0 3000,-625 6000,-625 c 3000,0 3000, 625 6000, 625 v 20 L 48000,1020 L 0,1020 z" dur="40.13726833073213s" keyTimes="0;1" repeatCount="indefinite"></animate></path></clipPath></defs><pattern id="da142e50-6ca2-4552-a59c-9156a0d16c17" viewBox="0 0 24000 1000" width="24000" height="1000" patternUnits="userSpaceOnUse"><path style="opacity: 0.5;" fill="#2d41b4" d="M-28343.38718842706,1020 v -395 c 6000,0 6000,-625 12000,-625 c 6000,0 6000, 625 12000, 625 c 6000,0 6000,-625 12000,-625 c 6000,0 6000, 625 12000, 625 c 6000,0 6000,-625 12000,-625 c 6000,0 6000, 625 12000, 625 v 395 L 48000,1020 L 0,1020 z"><animate attributeName="d" values="M-28343.38718842706,1020 v -395 c 6000,0 6000,-625 12000,-625 c 6000,0 6000, 625 12000, 625 c 6000,0 6000,-625 12000,-625 c 6000,0 6000, 625 12000, 625 c 6000,0 6000,-625 12000,-625 c 6000,0 6000, 625 12000, 625 v 395 L 48000,1020 L 0,1020 z;M-4343.387188427058,1020 v -395 c 6000,0 6000,-625 12000,-625 c 6000,0 6000, 625 12000, 625 c 6000,0 6000,-625 12000,-625 c 6000,0 6000, 625 12000, 625 c 6000,0 6000,-625 12000,-625 c 6000,0 6000, 625 12000, 625 v 395 L 48000,1020 L 0,1020 z" dur="26.378874268331437s" keyTimes="0;1" repeatCount="indefinite"></animate></path><path style="opacity: 0.5;" fill="#2d41b4" d="M-10648.070829585471,1020 v -270 c 6000,0 6000,-625 12000,-625 c 6000,0 6000, 625 12000, 625 c 6000,0 6000,-625 12000,-625 c 6000,0 6000, 625 12000, 625 c 6000,0 6000,-625 12000,-625 c 6000,0 6000, 625 12000, 625 v 270 L 48000,1020 L 0,1020 z"><animate attributeName="d" values="M-10648.070829585471,1020 v -270 c 6000,0 6000,-625 12000,-625 c 6000,0 6000, 625 12000, 625 c 6000,0 6000,-625 12000,-625 c 6000,0 6000, 625 12000, 625 c 6000,0 6000,-625 12000,-625 c 6000,0 6000, 625 12000, 625 v 270 L 48000,1020 L 0,1020 z;M-34648.07082958547,1020 v -270 c 6000,0 6000,-625 12000,-625 c 6000,0 6000, 625 12000, 625 c 6000,0 6000,-625 12000,-625 c 6000,0 6000, 625 12000, 625 c 6000,0 6000,-625 12000,-625 c 6000,0 6000, 625 12000, 625 v 270 L 48000,1020 L 0,1020 z" dur="47.32657230715395s" keyTimes="0;1" repeatCount="indefinite"></animate></path><path style="opacity: 0.5;" fill="#2d41b4" d="M-21880.57126506456,1020 v -145 c 6000,0 6000,-625 12000,-625 c 6000,0 6000, 625 12000, 625 c 6000,0 6000,-625 12000,-625 c 6000,0 6000, 625 12000, 625 c 6000,0 6000,-625 12000,-625 c 6000,0 6000, 625 12000, 625 v 145 L 48000,1020 L 0,1020 z"><animate attributeName="d" values="M-21880.57126506456,1020 v -145 c 6000,0 6000,-625 12000,-625 c 6000,0 6000, 625 12000, 625 c 6000,0 6000,-625 12000,-625 c 6000,0 6000, 625 12000, 625 c 6000,0 6000,-625 12000,-625 c 6000,0 6000, 625 12000, 625 v 145 L 48000,1020 L 0,1020 z;M-45880.57126506456,1020 v -145 c 6000,0 6000,-625 12000,-625 c 6000,0 6000, 625 12000, 625 c 6000,0 6000,-625 12000,-625 c 6000,0 6000, 625 12000, 625 c 6000,0 6000,-625 12000,-625 c 6000,0 6000, 625 12000, 625 v 145 L 48000,1020 L 0,1020 z" dur="29.58205840393608s" keyTimes="0;1" repeatCount="indefinite"></animate></path><path style="opacity: 0.5;" fill="#2d41b4" d="M-38706.1463254809,1020 v -20 c 3000,0 3000,-625 6000,-625 c 3000,0 3000, 625 6000, 625 c 3000,0 3000,-625 6000,-625 c 3000,0 3000, 625 6000, 625 c 3000,0 3000,-625 6000,-625 c 3000,0 3000, 625 6000, 625 c 3000,0 3000,-625 6000,-625 c 3000,0 3000, 625 6000, 625 c 3000,0 3000,-625 6000,-625 c 3000,0 3000, 625 6000, 625 c 3000,0 3000,-625 6000,-625 c 3000,0 3000, 625 6000, 625 c 3000,0 3000,-625 6000,-625 c 3000,0 3000, 625 6000, 625 v 20 L 48000,1020 L 0,1020 z"><animate attributeName="d" values="M-38706.1463254809,1020 v -20 c 3000,0 3000,-625 6000,-625 c 3000,0 3000, 625 6000, 625 c 3000,0 3000,-625 6000,-625 c 3000,0 3000, 625 6000, 625 c 3000,0 3000,-625 6000,-625 c 3000,0 3000, 625 6000, 625 c 3000,0 3000,-625 6000,-625 c 3000,0 3000, 625 6000, 625 c 3000,0 3000,-625 6000,-625 c 3000,0 3000, 625 6000, 625 c 3000,0 3000,-625 6000,-625 c 3000,0 3000, 625 6000, 625 c 3000,0 3000,-625 6000,-625 c 3000,0 3000, 625 6000, 625 v 20 L 48000,1020 L 0,1020 z;M-14706.146325480897,1020 v -20 c 3000,0 3000,-625 6000,-625 c 3000,0 3000, 625 6000, 625 c 3000,0 3000,-625 6000,-625 c 3000,0 3000, 625 6000, 625 c 3000,0 3000,-625 6000,-625 c 3000,0 3000, 625 6000, 625 c 3000,0 3000,-625 6000,-625 c 3000,0 3000, 625 6000, 625 c 3000,0 3000,-625 6000,-625 c 3000,0 3000, 625 6000, 625 c 3000,0 3000,-625 6000,-625 c 3000,0 3000, 625 6000, 625 c 3000,0 3000,-625 6000,-625 c 3000,0 3000, 625 6000, 625 v 20 L 48000,1020 L 0,1020 z" dur="40.13726833073213s" keyTimes="0;1" repeatCount="indefinite"></animate></path><rect x="0" y="0" width="24000" height="1000" fill="#2d41b4" clip-path="url(#ce71f05d-6373-4a65-9c4f-166c27d03134)"></rect><rect x="-24000" y="1000" width="72000" height="1000" fill="#2d41b4"></rect></pattern><rect x="-24000" y="-500" width="400000000000" height="1000" fill="#0000"></rect><rect fill="url(#da142e50-6ca2-4552-a59c-9156a0d16c17)" x="0" y="10" width="400000000000" height="999"></rect></svg>
