<svg viewBox="0 0 1000 1000" xmlns="http://www.w3.org/2000/svg" overflow="visible" height="100%"><defs><clipPath id="48f608a3-bf53-442f-83a7-5dfc7ec88466"><path fill="black" d="M-40313.40674095356,1020 v -395 c 6000,0 6000,-625 12000,-625 c 6000,0 6000, 625 12000, 625 c 6000,0 6000,-625 12000,-625 c 6000,0 6000, 625 12000, 625 c 6000,0 6000,-625 12000,-625 c 6000,0 6000, 625 12000, 625 v 395 L 48000,1020 L 0,1020 z" clip-path="url(#)"><animate attributeName="d" values="M-40313.40674095356,1020 v -395 c 6000,0 6000,-625 12000,-625 c 6000,0 6000, 625 12000, 625 c 6000,0 6000,-625 12000,-625 c 6000,0 6000, 625 12000, 625 c 6000,0 6000,-625 12000,-625 c 6000,0 6000, 625 12000, 625 v 395 L 48000,1020 L 0,1020 z;M-16313.406740953558,1020 v -395 c 6000,0 6000,-625 12000,-625 c 6000,0 6000, 625 12000, 625 c 6000,0 6000,-625 12000,-625 c 6000,0 6000, 625 12000, 625 c 6000,0 6000,-625 12000,-625 c 6000,0 6000, 625 12000, 625 v 395 L 48000,1020 L 0,1020 z" dur="23.941884533854378s" keyTimes="0;1" repeatCount="indefinite"></animate></path></clipPath><clipPath id="ad89086f-592c-4480-8ca2-e52ea650b4d3"><path fill="black" d="M-16999.268532838076,1020 v -270 c 6000,0 6000,-625 12000,-625 c 6000,0 6000, 625 12000, 625 c 6000,0 6000,-625 12000,-625 c 6000,0 6000, 625 12000, 625 c 6000,0 6000,-625 12000,-625 c 6000,0 6000, 625 12000, 625 v 270 L 48000,1020 L 0,1020 z" clip-path="url(#48f608a3-bf53-442f-83a7-5dfc7ec88466)"><animate attributeName="d" values="M-16999.268532838076,1020 v -270 c 6000,0 6000,-625 12000,-625 c 6000,0 6000, 625 12000, 625 c 6000,0 6000,-625 12000,-625 c 6000,0 6000, 625 12000, 625 c 6000,0 6000,-625 12000,-625 c 6000,0 6000, 625 12000, 625 v 270 L 48000,1020 L 0,1020 z;M-40999.268532838076,1020 v -270 c 6000,0 6000,-625 12000,-625 c 6000,0 6000, 625 12000, 625 c 6000,0 6000,-625 12000,-625 c 6000,0 6000, 625 12000, 625 c 6000,0 6000,-625 12000,-625 c 6000,0 6000, 625 12000, 625 v 270 L 48000,1020 L 0,1020 z" dur="40.67999608989821s" keyTimes="0;1" repeatCount="indefinite"></animate></path></clipPath><clipPath id="3aa1498d-7cc5-43ec-a005-5cae1abb476b"><path fill="black" d="M-46791.17766711467,1020 v -145 c 3000,0 3000,-625 6000,-625 c 3000,0 3000, 625 6000, 625 c 3000,0 3000,-625 6000,-625 c 3000,0 3000, 625 6000, 625 c 3000,0 3000,-625 6000,-625 c 3000,0 3000, 625 6000, 625 c 3000,0 3000,-625 6000,-625 c 3000,0 3000, 625 6000, 625 c 3000,0 3000,-625 6000,-625 c 3000,0 3000, 625 6000, 625 c 3000,0 3000,-625 6000,-625 c 3000,0 3000, 625 6000, 625 c 3000,0 3000,-625 6000,-625 c 3000,0 3000, 625 6000, 625 v 145 L 48000,1020 L 0,1020 z" clip-path="url(#ad89086f-592c-4480-8ca2-e52ea650b4d3)"><animate attributeName="d" values="M-46791.17766711467,1020 v -145 c 3000,0 3000,-625 6000,-625 c 3000,0 3000, 625 6000, 625 c 3000,0 3000,-625 6000,-625 c 3000,0 3000, 625 6000, 625 c 3000,0 3000,-625 6000,-625 c 3000,0 3000, 625 6000, 625 c 3000,0 3000,-625 6000,-625 c 3000,0 3000, 625 6000, 625 c 3000,0 3000,-625 6000,-625 c 3000,0 3000, 625 6000, 625 c 3000,0 3000,-625 6000,-625 c 3000,0 3000, 625 6000, 625 c 3000,0 3000,-625 6000,-625 c 3000,0 3000, 625 6000, 625 v 145 L 48000,1020 L 0,1020 z;M-22791.177667114673,1020 v -145 c 3000,0 3000,-625 6000,-625 c 3000,0 3000, 625 6000, 625 c 3000,0 3000,-625 6000,-625 c 3000,0 3000, 625 6000, 625 c 3000,0 3000,-625 6000,-625 c 3000,0 3000, 625 6000, 625 c 3000,0 3000,-625 6000,-625 c 3000,0 3000, 625 6000, 625 c 3000,0 3000,-625 6000,-625 c 3000,0 3000, 625 6000, 625 c 3000,0 3000,-625 6000,-625 c 3000,0 3000, 625 6000, 625 c 3000,0 3000,-625 6000,-625 c 3000,0 3000, 625 6000, 625 v 145 L 48000,1020 L 0,1020 z" dur="28.681827457800637s" keyTimes="0;1" repeatCount="indefinite"></animate></path></clipPath><clipPath id="306e7077-d1d4-49a7-a69b-d27bccc09a10"><path fill="black" d="M-6307.733733102145,1020 v -20 c 3000,0 3000,-625 6000,-625 c 3000,0 3000, 625 6000, 625 c 3000,0 3000,-625 6000,-625 c 3000,0 3000, 625 6000, 625 c 3000,0 3000,-625 6000,-625 c 3000,0 3000, 625 6000, 625 c 3000,0 3000,-625 6000,-625 c 3000,0 3000, 625 6000, 625 c 3000,0 3000,-625 6000,-625 c 3000,0 3000, 625 6000, 625 c 3000,0 3000,-625 6000,-625 c 3000,0 3000, 625 6000, 625 c 3000,0 3000,-625 6000,-625 c 3000,0 3000, 625 6000, 625 v 20 L 48000,1020 L 0,1020 z" clip-path="url(#3aa1498d-7cc5-43ec-a005-5cae1abb476b)"><animate attributeName="d" values="M-6307.733733102145,1020 v -20 c 3000,0 3000,-625 6000,-625 c 3000,0 3000, 625 6000, 625 c 3000,0 3000,-625 6000,-625 c 3000,0 3000, 625 6000, 625 c 3000,0 3000,-625 6000,-625 c 3000,0 3000, 625 6000, 625 c 3000,0 3000,-625 6000,-625 c 3000,0 3000, 625 6000, 625 c 3000,0 3000,-625 6000,-625 c 3000,0 3000, 625 6000, 625 c 3000,0 3000,-625 6000,-625 c 3000,0 3000, 625 6000, 625 c 3000,0 3000,-625 6000,-625 c 3000,0 3000, 625 6000, 625 v 20 L 48000,1020 L 0,1020 z;M-30307.733733102144,1020 v -20 c 3000,0 3000,-625 6000,-625 c 3000,0 3000, 625 6000, 625 c 3000,0 3000,-625 6000,-625 c 3000,0 3000, 625 6000, 625 c 3000,0 3000,-625 6000,-625 c 3000,0 3000, 625 6000, 625 c 3000,0 3000,-625 6000,-625 c 3000,0 3000, 625 6000, 625 c 3000,0 3000,-625 6000,-625 c 3000,0 3000, 625 6000, 625 c 3000,0 3000,-625 6000,-625 c 3000,0 3000, 625 6000, 625 c 3000,0 3000,-625 6000,-625 c 3000,0 3000, 625 6000, 625 v 20 L 48000,1020 L 0,1020 z" dur="26.15562313872727s" keyTimes="0;1" repeatCount="indefinite"></animate></path></clipPath></defs><pattern id="d9effb32-e709-4d5a-9045-8da8c599ec51" viewBox="0 0 24000 1000" width="24000" height="1000" patternUnits="userSpaceOnUse"><path style="opacity: 0.5;" fill="#000" d="M-40313.40674095356,1020 v -395 c 6000,0 6000,-625 12000,-625 c 6000,0 6000, 625 12000, 625 c 6000,0 6000,-625 12000,-625 c 6000,0 6000, 625 12000, 625 c 6000,0 6000,-625 12000,-625 c 6000,0 6000, 625 12000, 625 v 395 L 48000,1020 L 0,1020 z"><animate attributeName="d" values="M-40313.40674095356,1020 v -395 c 6000,0 6000,-625 12000,-625 c 6000,0 6000, 625 12000, 625 c 6000,0 6000,-625 12000,-625 c 6000,0 6000, 625 12000, 625 c 6000,0 6000,-625 12000,-625 c 6000,0 6000, 625 12000, 625 v 395 L 48000,1020 L 0,1020 z;M-16313.406740953558,1020 v -395 c 6000,0 6000,-625 12000,-625 c 6000,0 6000, 625 12000, 625 c 6000,0 6000,-625 12000,-625 c 6000,0 6000, 625 12000, 625 c 6000,0 6000,-625 12000,-625 c 6000,0 6000, 625 12000, 625 v 395 L 48000,1020 L 0,1020 z" dur="23.941884533854378s" keyTimes="0;1" repeatCount="indefinite"></animate></path><path style="opacity: 0.5;" fill="#000" d="M-16999.268532838076,1020 v -270 c 6000,0 6000,-625 12000,-625 c 6000,0 6000, 625 12000, 625 c 6000,0 6000,-625 12000,-625 c 6000,0 6000, 625 12000, 625 c 6000,0 6000,-625 12000,-625 c 6000,0 6000, 625 12000, 625 v 270 L 48000,1020 L 0,1020 z"><animate attributeName="d" values="M-16999.268532838076,1020 v -270 c 6000,0 6000,-625 12000,-625 c 6000,0 6000, 625 12000, 625 c 6000,0 6000,-625 12000,-625 c 6000,0 6000, 625 12000, 625 c 6000,0 6000,-625 12000,-625 c 6000,0 6000, 625 12000, 625 v 270 L 48000,1020 L 0,1020 z;M-40999.268532838076,1020 v -270 c 6000,0 6000,-625 12000,-625 c 6000,0 6000, 625 12000, 625 c 6000,0 6000,-625 12000,-625 c 6000,0 6000, 625 12000, 625 c 6000,0 6000,-625 12000,-625 c 6000,0 6000, 625 12000, 625 v 270 L 48000,1020 L 0,1020 z" dur="40.67999608989821s" keyTimes="0;1" repeatCount="indefinite"></animate></path><path style="opacity: 0.5;" fill="#000" d="M-46791.17766711467,1020 v -145 c 3000,0 3000,-625 6000,-625 c 3000,0 3000, 625 6000, 625 c 3000,0 3000,-625 6000,-625 c 3000,0 3000, 625 6000, 625 c 3000,0 3000,-625 6000,-625 c 3000,0 3000, 625 6000, 625 c 3000,0 3000,-625 6000,-625 c 3000,0 3000, 625 6000, 625 c 3000,0 3000,-625 6000,-625 c 3000,0 3000, 625 6000, 625 c 3000,0 3000,-625 6000,-625 c 3000,0 3000, 625 6000, 625 c 3000,0 3000,-625 6000,-625 c 3000,0 3000, 625 6000, 625 v 145 L 48000,1020 L 0,1020 z"><animate attributeName="d" values="M-46791.17766711467,1020 v -145 c 3000,0 3000,-625 6000,-625 c 3000,0 3000, 625 6000, 625 c 3000,0 3000,-625 6000,-625 c 3000,0 3000, 625 6000, 625 c 3000,0 3000,-625 6000,-625 c 3000,0 3000, 625 6000, 625 c 3000,0 3000,-625 6000,-625 c 3000,0 3000, 625 6000, 625 c 3000,0 3000,-625 6000,-625 c 3000,0 3000, 625 6000, 625 c 3000,0 3000,-625 6000,-625 c 3000,0 3000, 625 6000, 625 c 3000,0 3000,-625 6000,-625 c 3000,0 3000, 625 6000, 625 v 145 L 48000,1020 L 0,1020 z;M-22791.177667114673,1020 v -145 c 3000,0 3000,-625 6000,-625 c 3000,0 3000, 625 6000, 625 c 3000,0 3000,-625 6000,-625 c 3000,0 3000, 625 6000, 625 c 3000,0 3000,-625 6000,-625 c 3000,0 3000, 625 6000, 625 c 3000,0 3000,-625 6000,-625 c 3000,0 3000, 625 6000, 625 c 3000,0 3000,-625 6000,-625 c 3000,0 3000, 625 6000, 625 c 3000,0 3000,-625 6000,-625 c 3000,0 3000, 625 6000, 625 c 3000,0 3000,-625 6000,-625 c 3000,0 3000, 625 6000, 625 v 145 L 48000,1020 L 0,1020 z" dur="28.681827457800637s" keyTimes="0;1" repeatCount="indefinite"></animate></path><path style="opacity: 0.5;" fill="#000" d="M-6307.733733102145,1020 v -20 c 3000,0 3000,-625 6000,-625 c 3000,0 3000, 625 6000, 625 c 3000,0 3000,-625 6000,-625 c 3000,0 3000, 625 6000, 625 c 3000,0 3000,-625 6000,-625 c 3000,0 3000, 625 6000, 625 c 3000,0 3000,-625 6000,-625 c 3000,0 3000, 625 6000, 625 c 3000,0 3000,-625 6000,-625 c 3000,0 3000, 625 6000, 625 c 3000,0 3000,-625 6000,-625 c 3000,0 3000, 625 6000, 625 c 3000,0 3000,-625 6000,-625 c 3000,0 3000, 625 6000, 625 v 20 L 48000,1020 L 0,1020 z"><animate attributeName="d" values="M-6307.733733102145,1020 v -20 c 3000,0 3000,-625 6000,-625 c 3000,0 3000, 625 6000, 625 c 3000,0 3000,-625 6000,-625 c 3000,0 3000, 625 6000, 625 c 3000,0 3000,-625 6000,-625 c 3000,0 3000, 625 6000, 625 c 3000,0 3000,-625 6000,-625 c 3000,0 3000, 625 6000, 625 c 3000,0 3000,-625 6000,-625 c 3000,0 3000, 625 6000, 625 c 3000,0 3000,-625 6000,-625 c 3000,0 3000, 625 6000, 625 c 3000,0 3000,-625 6000,-625 c 3000,0 3000, 625 6000, 625 v 20 L 48000,1020 L 0,1020 z;M-30307.733733102144,1020 v -20 c 3000,0 3000,-625 6000,-625 c 3000,0 3000, 625 6000, 625 c 3000,0 3000,-625 6000,-625 c 3000,0 3000, 625 6000, 625 c 3000,0 3000,-625 6000,-625 c 3000,0 3000, 625 6000, 625 c 3000,0 3000,-625 6000,-625 c 3000,0 3000, 625 6000, 625 c 3000,0 3000,-625 6000,-625 c 3000,0 3000, 625 6000, 625 c 3000,0 3000,-625 6000,-625 c 3000,0 3000, 625 6000, 625 c 3000,0 3000,-625 6000,-625 c 3000,0 3000, 625 6000, 625 v 20 L 48000,1020 L 0,1020 z" dur="26.15562313872727s" keyTimes="0;1" repeatCount="indefinite"></animate></path><rect x="0" y="0" width="24000" height="1000" fill="#000" clip-path="url(#306e7077-d1d4-49a7-a69b-d27bccc09a10)"></rect><rect x="-24000" y="1000" width="72000" height="1000" fill="#000"></rect></pattern><rect x="-24000" y="-500" width="400000000000" height="1000" fill="#0000"></rect><rect fill="url(#d9effb32-e709-4d5a-9045-8da8c599ec51)" x="0" y="10" width="400000000000" height="999"></rect></svg>
